<svg xmlns="http://www.w3.org/2000/svg" xmlns:xlink="http://www.w3.org/1999/xlink" fill="#fff" fill-rule="evenodd" stroke="#000" stroke-linecap="round" stroke-linejoin="round" viewBox="0 0 76 81">
  <use xlink:href="#a" x=".5" y=".5"/>
  <defs>
    <linearGradient id="c" x1="0%" x2="100%" y1="50%" y2="50%">
      <stop offset="0%" stop-color="#37BBEF"/>
      <stop offset="100%" stop-color="#2481BA"/>
    </linearGradient>
    <path id="d" d="M32.403 70.025q1.002.507 1.123-.647.08-1.347-1.069-1.92-.883-.329-1.03.52-.147 1.347.976 2.047"/>
  </defs>
  <symbol id="a" overflow="visible">
    <path fill="#3ED6FF" stroke="none" d="M31.41 27.119q-1.53-.904-3.059 0L.82 43.39q-1.529.904 0 1.808l42.826 25.311q1.529.904 3.059 0l27.531-16.271q1.529-.904 0-1.808z"/>
    <path fill="url(#c)" stroke="none" d="M45.175 70.96q.765 0 1.529-.452l27.531-16.271q.765-.452.765-.904v9.04q0 .452-.765.904L46.704 79.548Q45.94 80 45.175 80z"/>
    <path fill="#2481BA" stroke="none" d="M45.175 70.96q-.792.017-1.584-.451L.765 45.198Q0 44.746 0 44.294v9.04q0 .452.765.904l42.826 25.311q.792.468 1.584.451z"/>
    <path fill="#3b4950" stroke="none" d="M43.897 72.445V78L.662 52.222v-5.333z"/>
    <use xlink:href="#d" fill="#ffea00" stroke="none"/>
    <use xlink:href="#d" x="3" y="1.727" fill="#2481BA" stroke="none"/>
    <use xlink:href="#d" x="6" y="3.453" fill="#37BBEF" stroke="none"/>
    <path fill="#2481BA" stroke="none" d="M47.403 27.815c1.744-.551 2.99-1.377 6.229-.551 2.741 1.101 4.485 3.304 6.229 5.782.498.826.249 1.101-.249 1.652-.498.275-.997.275-1.495-.551-.997-1.652-2.741-3.855-4.236-4.405-2.741-1.652-5.233 0-5.98.275-.997 0-1.246-.551-1.246-1.101s.249-.826.748-1.101m.845 4.907q1.544-1.676 4.633-.838c2.316 1.117 3.267 2.843 4.633 4.749.39.635.133.973-.257 1.397-.39.212-.897.077-1.287-.559-.78-1.27-2.433-3.487-3.603-3.91-1.802-.838-2.316.279-3.603.838-.515 0-.515 0-1.029-.559 0-.423.187-.692.515-1.117zM46.33 22.367c2.317-.732 3.972-1.829 8.276-.732 3.641 1.463 5.959 4.389 8.276 7.682.662 1.097.331 1.463-.331 2.195-.662.366-1.324.366-1.986-.731-1.324-2.195-3.641-5.121-5.627-5.853-3.641-2.195-6.952 0-7.945.366-1.324 0-1.655-.732-1.655-1.463s.331-1.097.993-1.463z"/>
    <path fill="#37BBEF" stroke="none" d="M12.735 55.003v3.486l-11.18-6.436v-3.486z"/>
  </symbol>
</svg>