<svg xmlns="http://www.w3.org/2000/svg" width="580" height="580">
  <path fill="#4acaf3" d="M436.866 128.373A299 299 0 0 1 442 133l1.852 1.692c4.057 3.858 6.612 7.377 9.023 12.433l1.742 3.57c4.417 10.557 2.63 20.943-1.617 31.305-1.414 2.242-1.414 2.242-2.813 4.063-2.416 2.598-2.416 2.598-2.096 4.958 1.244 2.708 2.61 3.258 5.264 4.573l2.79 1.413 3.042 1.493q3.192 1.614 6.38 3.234l3.277 1.655c4.64 2.37 9.214 4.853 13.781 7.361l2.68 1.469q4.35 2.388 8.695 4.781l5.201 2.857c13.158 7.228 26.3 14.48 39.305 21.983 4.826 2.759 9.632 5.203 14.788 7.292C555 250 555 250 556 252c.152 2.568.246 5.113.297 7.684l.06 2.406q.094 3.959.178 7.918l.13 5.526q.137 5.814.265 11.627.164 7.386.34 14.772.134 5.721.265 11.444l.125 5.436q.2 8.593.34 17.187l.043 2.342q.054 3.316.082 6.634l.046 3.807c-.247 4.657-1.107 6.709-4.171 10.217-2.926 2.117-2.926 2.117-6.313 3.875q-1.907 1.024-3.812 2.055l-1.965 1.042c-2.957 1.592-5.844 3.298-8.723 5.028-.598.36-1.197.718-1.814 1.088-8.492 5.139-16.81 10.558-25.158 15.924a2077 2077 0 0 1-15.903 10.113A4834 4834 0 0 0 470 411a7383 7383 0 0 1-27.673 17.532q-5.915 3.733-11.827 7.468l-4.75 3-2.375 1.5L378.25 469l-7.136 4.507q-5.846 3.69-11.688 7.388a4327 4327 0 0 1-23.192 14.58A11762 11762 0 0 0 321 505l-3.148 1.967q-4.555 2.853-9.102 5.72l-2.796 1.746-2.595 1.641-2.266 1.425c-2.207 1.477-2.207 1.477-4.131 3.7L295 523c-3.75-.25-3.75-.25-7-1l-1 6h-1v-8l-2.688-.807c-3.158-1.138-5.52-2.422-8.296-4.283l-2.805-1.86-2.961-1.987c-7.037-4.66-14.084-9.267-21.313-13.625-9.518-5.751-18.88-11.739-28.251-17.726a3042 3042 0 0 0-12.374-7.837l-2.34-1.476-4.645-2.931a18784 18784 0 0 1-14.207-8.97 8338 8338 0 0 1-11.8-7.463 2433 2433 0 0 0-24.945-15.597 1018 1018 0 0 1-21.067-13.347c-7.585-4.935-15.243-9.754-22.9-14.575-3.972-2.501-7.94-5.009-11.908-7.516q-7.07-4.467-14.145-8.93A8424 8424 0 0 1 43 368l-2.316-1.478q-3-1.915-5.997-3.834l-3.3-2.114C29 359 29 359 28 358a59 59 0 0 1-.174-4.104l-.04-2.68-.026-2.965-.04-3.104c-.127-10.727-.183-21.454-.235-32.18a1885 1885 0 0 0-.143-15.281c-.082-6.142-.125-12.282-.14-18.424a591 591 0 0 0-.078-7.027 512 512 0 0 1-.048-9.84l-.082-2.933c.089-6.452.089-6.452 2.733-9.365A52.4 52.4 0 0 1 36 246l3.297-2.027 3.453-1.91 1.989-1.104c8.238-4.545 16.553-8.95 24.852-13.38 7.87-4.205 15.7-8.476 23.487-12.833 4.065-2.273 8.14-4.525 12.219-6.773l1.961-1.081q3.925-2.164 7.852-4.325c9.481-5.219 9.481-5.219 18.89-10.567-1.024-3.723-2.368-6.692-4.5-9.875-4.733-7.399-5.494-15.51-4.5-24.125 5.089-20.048 22.944-33.398 39-45l1.628-1.193c82.173-59.618 194.06-49.999 271.238 16.566"/>
  <path fill="#2a7daf" d="m553 251 3 1q.395 16.014.782 32.028.18 7.438.364 14.876.177 7.198.35 14.395.065 2.726.134 5.453.216 8.623.37 17.248l.044 2.345c.038 2.211.063 4.423.084 6.635l.044 3.805c-.25 4.655-1.11 6.708-4.172 10.215-2.926 2.117-2.926 2.117-6.312 3.875q-1.908 1.024-3.813 2.055l-1.965 1.042c-2.957 1.592-5.844 3.298-8.722 5.028l-1.815 1.088c-8.492 5.139-16.81 10.558-25.158 15.924a2077 2077 0 0 1-15.902 10.113A4834 4834 0 0 0 470 411a7383 7383 0 0 1-27.673 17.532q-5.915 3.732-11.827 7.468l-4.75 3-2.375 1.5L378.25 469l-2.374 1.5-4.762 3.007q-5.846 3.69-11.688 7.388a4327 4327 0 0 1-23.192 14.58Q328.614 500.231 321 505l-3.148 1.967q-4.555 2.853-9.102 5.72l-2.796 1.746-2.595 1.641-2.266 1.425c-2.215 1.476-2.215 1.476-4.115 3.746L295 523c-2.124-.39-2.124-.39-4-1a8039 8039 0 0 1-1-54l-.057-3.634c-.104-6.762-.185-13.524-.23-20.286q-.025-3.134-.072-6.267a787 787 0 0 1-.067-8.723l-.053-2.584c.015-3.989.158-5.995 2.328-9.447 2.557-2.447 5.17-4.188 8.214-5.997l1.747-1.047c3.43-2.04 6.914-3.96 10.44-5.827 6.224-3.34 12.07-7.21 17.977-11.075 5.125-3.353 10.29-6.642 15.46-9.925l2.806-1.784 5.676-3.606Q361.087 373.402 368 369l8.25-5.25 11-7 5.507-3.504q6.817-4.34 13.638-8.676a15749 15749 0 0 0 48.078-30.718c10.078-6.458 20.165-12.9 30.293-19.28 7.604-4.794 15.172-9.644 22.741-14.494a5463 5463 0 0 1 23.915-15.248c4.01-2.542 8.005-5.1 11.953-7.736l1.978-1.311a824 824 0 0 0 5.065-3.404z"/>
  <path fill="#32bbe4" d="m29 251 3 1v2l2.25.25c2.75.75 2.75.75 4.41 2.469 3.177 3.097 6.76 5.215 10.528 7.531l5.148 3.21 2.776 1.73c5.091 3.19 10.144 6.44 15.2 9.685C80.2 283.93 88.095 288.975 96 294a9290 9290 0 0 1 26.684 17.04A7383 7383 0 0 0 143 324a8206 8206 0 0 1 23.5 15c13.37 8.562 26.763 17.086 40.164 25.598 8.297 5.272 16.59 10.55 24.836 15.902 6.438 4.178 12.9 8.317 19.375 12.438l2.806 1.785a2737 2737 0 0 0 13.592 8.59l2.544 1.597q2.331 1.464 4.667 2.92a154 154 0 0 1 4.266 2.777c2.265 1.485 2.265 1.485 4.998 2.538 3.317 1.626 5.063 2.851 7.252 5.855 1.751 6.947.863 14.482.563 21.563-.083 3.262-.146 6.525-.21 9.788q-.068 3.432-.155 6.864c-.326 13.623-.004 27.227.302 40.848l.147 7.218q.168 8.36.353 16.719h-4l-1 6h-1v-8l-2.688-.807c-3.158-1.138-5.52-2.422-8.296-4.283l-2.805-1.86-2.961-1.987c-7.037-4.66-14.084-9.267-21.312-13.625-9.519-5.751-18.881-11.739-28.252-17.726a3042 3042 0 0 0-12.374-7.837l-2.34-1.476-4.645-2.931a18784 18784 0 0 1-14.207-8.97 8338 8338 0 0 1-11.8-7.463 2433 2433 0 0 0-24.945-15.598 1018 1018 0 0 1-21.067-13.346c-7.585-4.935-15.243-9.754-22.9-14.575Q99.45 403.762 93.5 400q-7.07-4.467-14.145-8.93A8424 8424 0 0 1 43 368l-2.316-1.478q-3-1.915-5.996-3.834l-3.301-2.114C29 359 29 359 28 358a59 59 0 0 1-.127-4.138l-.009-2.702.007-2.988-.006-3.129q-.004-5.146.002-10.293 0-3.559-.003-7.118-.002-7.47.006-14.94.006-9.6-.004-19.2-.005-7.352 0-14.705l-.002-7.081q-.003-4.939.007-9.878l-.007-2.988.009-2.702.001-2.362C28 252 28 252 29 251"/>
  <path fill="#f7f5eb" d="m291.188 101.438 2.956-.027C340.419 101.126 383.52 121.043 418 151q2.092 1.75 4.188 3.5c4.632 4.117 4.632 4.117 5.113 7.805.028 6.24-.674 9.63-4.801 14.445-3.05 2.541-6.453 2.455-10.27 2.676-5.388-1.029-9.4-5.376-13.23-9.051-22.244-20.468-50.578-33.367-80-39.375l-3.277-.691c-18.328-3.24-37.587-2.071-55.723 1.691l-2.132.406c-28.507 5.441-55.334 19.932-76.052 40.149-3.93 3.413-8.42 7.038-13.879 6.945-5.177-.657-8.12-2.466-11.578-6.336-2.397-3.816-1.98-7.815-1.359-12.164 2.268-4.453 5.365-7.608 9-11l1.723-1.703c20.344-19.286 50.285-33.562 77.158-40.714q2.162-.596 4.3-1.271c14.518-4.553 28.92-4.82 44.006-4.874"/>
  <path fill="#f7f5eb" d="m344 167 2.001.886C361.534 174.904 379.353 185.53 389 200c.732 4.944.522 8.936-1.687 13.438-3.63 4.021-5.803 5.394-11.25 6-4.284-.178-6.765-1.665-10.063-4.438l-1.863-2.437c-2.204-2.643-4.147-4.101-7.074-5.875l-2.95-1.797L351 203l-3.082-2.016c-22.487-14.529-51.183-21.197-77.714-15.907-19.237 4.495-36.347 14.38-51.024 27.43L216.312 215l-2.574 2.313c-3.487 2.149-5.706 2.08-9.738 1.687-4.17-1.635-7.108-3.573-10-7-1.27-3.809-1.85-7.075-1-11 1.972-3.334 4.228-6.29 7-9h2v-2c2.001-1.806 4-3.474 6.125-5.125l1.91-1.489c6.314-4.817 12.957-8.681 19.965-12.386l2.879-1.613C267.053 150.992 308.958 151.415 344 167"/>
  <path fill="#f6f5eb" d="M339 227c10.652 8.419 10.652 8.419 11.336 13.488.083 6.006-.064 9.893-4.336 14.512-2.927 2.373-4.683 2.96-8.437 3.438-5.842-.718-9.125-4.032-13.313-7.875-9.526-8.426-21.972-12.202-34.602-11.786-13.746 1.156-27.25 5.905-36.625 16.446-3.253 2.857-6.246 2.261-10.394 2.101-4.22-.52-6.435-1.999-9.227-5.097-2.572-4.085-1.973-8.574-1.402-13.227 4.213-10.03 17.566-17.46 27-22 4.278-1.588 8.583-2.863 13-4l3.828-1.082C297.48 206.582 321.134 215.032 339 227m-37.687 40.5c6.087 3.577 11.42 9.833 13.687 16.5 1.051 7.424-.339 14.459-4 21-5.268 5.735-12.656 8.985-20.375 9.5-7.501-.31-13.614-4.02-18.625-9.437-5.126-6.49-5.912-12.957-5-21.063 2.18-7.49 7.656-12.967 14.188-16.937 6.614-1.844 13.7-2.375 20.125.437"/>
</svg>