<?xml version="1.0" encoding="UTF-8"?>
<svg version="1.1" xmlns="http://www.w3.org/2000/svg" width="512" height="512">
<path d="M0 0 C1.03133057 0.32145996 1.03133057 0.32145996 2.08349609 0.64941406 C34.82285296 11.18674747 60.62974689 34.48193228 76.25 64.875 C85.46376358 83.52495159 88.24393715 103.40380506 89 124 C89.98097656 124.32871094 90.96195312 124.65742188 91.97265625 124.99609375 C118.28306525 134.13224602 139.75717782 151.7389769 152 177 C159.40925003 192.75711581 161.52359162 207.66041897 161.44604492 224.92114258 C161.43754353 227.7977691 161.46638379 230.67239667 161.49804688 233.54882812 C161.55935633 249.7742371 159.12855015 264.26208841 152 279 C151.57074219 279.89847656 151.14148438 280.79695313 150.69921875 281.72265625 C138.15037891 306.29010326 115.92300356 323.41736326 89.9375 331.875 C77.98701816 335.65161636 65.47338863 336.29977505 53.02374268 336.26069641 C51.68790054 336.26372714 50.35206014 336.26762117 49.01622272 336.27228898 C45.392654 336.28245932 41.76918542 336.28041559 38.1456089 336.27610838 C34.21908155 336.27362094 30.29257707 336.28268017 26.36605835 336.29014587 C18.69149936 336.30283958 11.01697545 336.30469323 3.34240773 336.30234561 C-2.9018311 336.30055619 -9.14605936 336.3023254 -15.39029694 336.30657005 C-16.72784537 336.30746284 -16.72784537 336.30746284 -18.09241499 336.30837366 C-19.90443109 336.30958552 -21.71644718 336.31079966 -23.52846327 336.31201603 C-40.48933433 336.32287118 -57.45018546 336.32073878 -74.41105762 336.31463119 C-89.89109079 336.30946462 -105.37106098 336.32071422 -120.8510817 336.33972941 C-136.78595913 336.35915167 -152.72080683 336.36735608 -168.65569615 336.36360615 C-177.58586148 336.36170066 -186.51597324 336.36411774 -195.44612885 336.37832069 C-203.04917569 336.39029163 -210.65213599 336.3915759 -218.25518414 336.37953053 C-222.12595778 336.37368145 -225.99657358 336.37243074 -229.86733627 336.38453293 C-264.33702156 336.48479385 -293.25016279 332.11791256 -320 309 C-321.13888672 308.01580078 -321.13888672 308.01580078 -322.30078125 307.01171875 C-337.7762963 292.5286215 -349.96293076 269.22106157 -351.114151 247.88432312 C-351.18143718 245.38480252 -351.21724851 242.88706278 -351.23828125 240.38671875 C-351.25038887 238.99499199 -351.25038887 238.99499199 -351.26274109 237.57514954 C-351.27653848 235.61090943 -351.28727996 233.64664578 -351.29516602 231.68237305 C-351.30660844 229.70541177 -351.32693515 227.72847946 -351.35668945 225.75170898 C-351.80504568 195.89719585 -342.875371 170.77726473 -322 149 C-312.54566252 139.9347299 -295.85707955 126 -282 126 C-282.04640625 125.27039063 -282.0928125 124.54078125 -282.140625 123.7890625 C-282.93165245 100.90576831 -274.00383545 79.68719697 -258.54418945 62.97314453 C-242.39958358 46.28637821 -221.34288097 37.48774073 -198.21240234 36.71899414 C-177.4573285 36.39618192 -159.07930273 43.43977326 -142 55 C-141.40574219 54.12859375 -140.81148437 53.2571875 -140.19921875 52.359375 C-119.30872938 22.15291429 -91.36624513 3.44986215 -55.18481445 -3.54418945 C-37.52031178 -6.07233253 -16.99333755 -5.38443346 0 0 Z " fill="#4293BB" transform="translate(351,91)"/>
<path d="M0 0 C3.42500506 2.90869833 6.72843888 5.92056076 10 9 C10.99773437 9.88365234 10.99773437 9.88365234 12.015625 10.78515625 C29.9556229 27.37600797 40.98518896 53.0369143 44 77 C44.10761634 79.96015262 44.09512735 82.91344092 44.0625 85.875 C44.05798828 86.65875 44.05347656 87.4425 44.04882812 88.25 C44.03714093 90.16670014 44.01920908 92.08336048 44 94 C43.67 94 43.34 94 43 94 C42.91363281 92.84886719 42.82726562 91.69773437 42.73828125 90.51171875 C40.21933263 60.64237454 30.00479029 35.47364722 9 14 C8.29875 13.24847656 7.5975 12.49695313 6.875 11.72265625 C2.07080174 6.6763109 -3.11508279 2.71637629 -9 -1 C-9.55123535 -1.3520752 -10.1024707 -1.70415039 -10.67041016 -2.06689453 C-24.41872457 -10.72017906 -40.70595751 -17.46489505 -57 -19 C-57.66112793 -19.06413086 -58.32225586 -19.12826172 -59.00341797 -19.19433594 C-91.7434237 -22.1739402 -122.39877398 -12.86448796 -148.0625 7.6875 C-149.72024869 9.11124256 -151.36766304 10.54719249 -153 12 C-153.91072266 12.76957031 -153.91072266 12.76957031 -154.83984375 13.5546875 C-163.75429224 21.65110425 -170.51257263 33.40358852 -176 44 C-179.28784841 42.50689453 -181.90734784 40.59085619 -184.75 38.375 C-202.68266609 25.31146841 -222.76821345 19.61075378 -244.875 22.5078125 C-265.27907027 26.14542339 -283.3972192 35.99768777 -295.78588867 52.84838867 C-305.16010731 66.29265178 -310.21224473 81.61469048 -311 98 C-311.33 98 -311.66 98 -312 98 C-313.1278575 77.94920007 -307.15960909 60.3081167 -294 45 C-293.50371094 44.34902344 -293.00742187 43.69804687 -292.49609375 43.02734375 C-281.07971397 28.63526598 -261.96520327 19.41441501 -244 17 C-222.2247006 15.09583608 -201.38459353 19.33004288 -184.25 33.5 C-183.51265625 34.1703125 -182.7753125 34.840625 -182.015625 35.53125 C-179.87686855 37.39261099 -179.87686855 37.39261099 -176 37 C-174.26874365 34.70168864 -174.26874365 34.70168864 -172.8125 31.6875 C-158.27985702 5.42405835 -132.39392848 -12.55248508 -104 -21 C-67.57868437 -30.18216713 -29.54048909 -23.89437114 0 0 Z " fill="#8DCAE6" transform="translate(388,118)"/>
<path d="M0 0 C23.82350018 4.33154549 44.81781148 19.68828297 58.72021484 39.10888672 C66.70980385 50.9149448 72.4445282 63.64105404 73 78 C71.18144552 74.78778695 70.17223128 71.46757814 69.09912109 67.95996094 C62.24180613 45.84824136 48.50900787 26.81829174 27.8671875 15.71484375 C23.96090263 13.69918647 20.00840559 11.80333261 16 10 C15.38664795 9.72099854 14.7732959 9.44199707 14.14135742 9.15454102 C10.81632306 7.67889157 7.628902 6.5257804 4.0625 5.8125 C3.29035156 5.65394531 2.51820313 5.49539062 1.72265625 5.33203125 C1.15417969 5.22246094 0.58570313 5.11289063 0 5 C0 3.35 0 1.7 0 0 Z " fill="#81C1DB" transform="translate(431,220)"/>
<path d="M0 0 C0 1.32 0 2.64 0 4 C-1.2375 4.391875 -2.475 4.78375 -3.75 5.1875 C-25.83558635 12.66421176 -43.97078291 24.67825359 -56 45 C-56.35578125 45.5990918 -56.7115625 46.19818359 -57.078125 46.81542969 C-63.34745766 57.65615075 -66.40192846 68.80904893 -69 81 C-69.33 81 -69.66 81 -70 81 C-70.38636132 70.26467463 -66.87920128 59.49990183 -62 50 C-61.50757813 48.99453125 -61.01515625 47.9890625 -60.5078125 46.953125 C-49.37264709 25.09330718 -29.80887426 8.91139889 -6.83203125 0.52734375 C-4.50479261 -0.1425437 -2.40438774 -0.22541135 0 0 Z " fill="#82C1DC" transform="translate(77,222)"/>
<path d="M0 0 C16.14203233 18.81406943 21.79753532 44.86717197 21 69 C20.67 69 20.34 69 20 69 C19.91363281 67.84886719 19.82726562 66.69773437 19.73828125 65.51171875 C17.9482629 44.28592888 12.79647568 23.73476366 0.1875 6.234375 C-1 4 -1 4 -0.6875 1.703125 C-0.460625 1.14109375 -0.23375 0.5790625 0 0 Z " fill="#85C4E1" transform="translate(411,143)"/>
<path d="M0 0 C0.66 0.33 1.32 0.66 2 1 C1.3503125 1.5878125 1.3503125 1.5878125 0.6875 2.1875 C-1.09615443 3.9698847 -1.09615443 3.9698847 -2.34765625 6.3125 C-4.05722041 9.09306772 -5.97216231 11.36258614 -8.125 13.8125 C-19.61175235 27.76871702 -25.54011967 43.38606378 -29 61 C-29.33 61 -29.66 61 -30 61 C-30.38636132 50.26467463 -26.87920128 39.49990183 -22 30 C-21.26136719 28.49179687 -21.26136719 28.49179687 -20.5078125 26.953125 C-15.22732032 16.58681317 -8.42113707 7.98928389 0 0 Z " fill="#7DBED8" transform="translate(37,242)"/>
<path d="M0 0 C0.99 0.33 1.98 0.66 3 1 C1.86566501 3.39664624 0.61699187 5.62566449 -0.76953125 7.890625 C-8.89330733 21.24903309 -12.5071206 34.49187968 -14 50 C-14.33 50 -14.66 50 -15 50 C-16.06246985 31.11164707 -10.63613795 15.53435937 0 0 Z " fill="#83C2DF" transform="translate(91,166)"/>
<path d="M0 0 C2.31216043 3.46824064 3.11117593 6.82272641 4.0625 10.8125 C4.23587891 11.51181641 4.40925781 12.21113281 4.58789062 12.93164062 C6.31514086 20.00608701 7.1426939 26.595861 7.0625 33.875 C7.05798828 34.65875 7.05347656 35.4425 7.04882812 36.25 C7.03714093 38.16670014 7.01920908 40.08336048 7 42 C6.67 42 6.34 42 6 42 C5.91363281 40.84886719 5.82726562 39.69773438 5.73828125 38.51171875 C4.90613445 28.73010771 3.40763981 19.56350548 0.58911133 10.14526367 C-0.52612044 6.33492268 -1.20578393 3.798879 0 0 Z " fill="#6EB4D6" transform="translate(425,170)"/>
<path d="M0 0 C0.99 0 1.98 0 3 0 C14.81567049 23.94006396 14.81567049 23.94006396 14 34 C11.77686663 30.05708422 10.60721434 25.79235721 9.25 21.5 C6.80085981 13.91947404 3.86278306 6.98588426 0 0 Z " fill="#75B8D3" transform="translate(490,264)"/>
<path d="M0 0 C0.66 0.66 1.32 1.32 2 2 C1.68546875 2.66902344 1.3709375 3.33804687 1.046875 4.02734375 C-2.86420821 12.80372023 -5.01269541 21.62969233 -7 31 C-7.33 31 -7.66 31 -8 31 C-8.39082428 20.1406681 -4.74483051 9.65911925 0 0 Z " fill="#6FB3D0" transform="translate(15,272)"/>
<path d="M0 0 C1.11328125 1.5234375 1.11328125 1.5234375 2 4 C1.51767765 6.64838819 0.94430503 9.05833952 0.1875 11.625 C-1.49494781 17.75212335 -2.69362568 23.62741424 -3 30 C-3.33 30 -3.66 30 -4 30 C-4.60551292 19.23532584 -2.9863065 10.2654286 0 0 Z " fill="#72B6D7" transform="translate(80,186)"/>
<path d="M0 0 C3.10190545 4.65285818 4.33846504 9.41532676 4 15 C2 14 2 14 1.11328125 11.34765625 C0.71689453 9.72150391 0.71689453 9.72150391 0.3125 8.0625 C0.04050781 6.98097656 -0.23148437 5.89945313 -0.51171875 4.78515625 C-1 2 -1 2 0 0 Z " fill="#79BCDB" transform="translate(425,170)"/>
</svg>
