<?xml version="1.0" encoding="utf-8"?>
<svg width="800px" height="800px" viewBox="0 0 1024 1024" class="icon" version="1.1" xmlns="http://www.w3.org/2000/svg">
  <g transform="translate(300, 250)">
    <path fill="#37BBEF" d="M184 1c2.482 1.177 2.482 1.177 5.113 2.668l2.994 1.685 3.206 1.835 3.364 1.904c8.4 4.772 16.753 9.627 25.088 14.514C231.478 28.126 239.232 32.575 247 37a2817 2817 0 0 1 28.922 16.71C283.586 58.193 291.287 62.606 299 67a2758 2758 0 0 1 28.871 16.682q8.38 4.902 16.813 9.713l1.96 1.117a5840 5840 0 0 0 9.534 5.424l3.443 1.959 3.076 1.745C365 105 365 105 366 106c.12 2.04.168 4.084.19 6.128l.025 1.97q.039 3.31.067 6.62l.054 4.762q.072 6.575.132 13.149.04 4.203.084 8.405c.38 36.565.6 73.132.774 109.698l.068 13.919.017 3.494c.095 18.664.278 37.325.495 55.988q.329 28.736.393 57.475c.03 11.818.13 23.632.32 35.448.124 8.108.16 16.214.125 24.322-.018 4.678.003 9.346.13 14.022.705 27.267.705 27.267-5.216 34.436-5.656 4.689-11.852 7.553-18.722 10.037-3.606 1.384-6.806 3.199-10.1 5.202-1.836.925-1.836.925-4.945.995-3.645-1.349-6.856-3.152-10.141-5.195q-2.274-1.375-4.55-2.746c-.83-.501-1.658-1.003-2.511-1.52-5.005-2.996-10.07-5.89-15.127-8.796l-6.746-3.887-3.421-1.97Q279.196 483.23 271 478.5q-9.783-5.646-19.57-11.285a5512 5512 0 0 1-31.305-18.152A2689 2689 0 0 0 194 434a3095 3095 0 0 1-27.125-15.625l-2.887-1.684c-2.666-1.558-5.33-3.118-7.988-4.691l-2.422-.941c-3.066-1.386-5.19-2.673-7.578-5.059-1.563-5.056-1.412-10.082-1.364-15.32a922 922 0 0 0-.077-4.774 785 785 0 0 1-.071-13.115c-.007-4.717-.07-9.432-.125-14.148-.11-10.312-.146-20.624-.167-30.937-.014-6.442-.045-12.883-.08-19.325-.092-17.841-.17-35.682-.18-53.524l-.003-3.46-.004-6.943-.002-3.482-.002-3.486c-.013-18.63-.14-37.26-.318-55.89q-.272-28.702-.272-57.407c-.002-10.742-.04-21.48-.178-32.221-.117-9.15-.15-18.294-.076-27.444.035-4.667.032-9.325-.077-13.992-.595-27.2-.595-27.2 5.344-34.364 5.658-4.683 11.854-7.56 18.725-10.036 3.578-1.384 6.692-3.233 9.905-5.312C179.676-.274 181.246.19 184 1"/>
    <path fill="#b0e0ff" d="M168 80q3.37 1.675 6.74 3.354l1.917.952c4.478 2.233 8.819 4.597 13.093 7.194q2.165 1.293 4.332 2.582l2.358 1.405c4.975 2.94 9.989 5.817 14.998 8.7l3.352 1.932 6.815 3.925q8.199 4.726 16.395 9.456l29.208 16.85a102960 102960 0 0 1 27.255 15.728l3.08 1.777 2.688 1.552c3.253 1.871 6.511 3.731 9.769 5.593v264c-3.863-1.545-7.124-3.112-10.7-5.168l-3.373-1.934-3.615-2.086-3.77-2.165a6415 6415 0 0 1-9.679-5.572q-4.288-2.473-8.578-4.942-8.037-4.633-16.067-9.274-8.108-4.682-16.218-9.359l-6.5-3.75-3.25-1.875-9.75-5.625-3.255-1.878-6.449-3.72a34764 34764 0 0 0-27.435-15.818c-1.023-.59-2.045-1.18-3.1-1.787l-2.72-1.568L173 347l-2.621-.944C168 344 168 344 167.543 341.994c-.178-2.804-.184-5.568-.144-8.377l-.013-3.275c-.008-3.64.02-7.278.046-10.917q.003-3.902-.002-7.804-.002-8.415.041-16.83c.041-8.111.054-16.222.06-24.333.011-13.16.045-26.318.092-39.477a19912 19912 0 0 0 .106-40.74l.02-11.856c.051-32.795.14-65.59.251-98.385"/>
  </g>
</svg>
